<svg width="255" height="64" viewBox="0 0 255 64" fill="none" xmlns="http://www.w3.org/2000/svg">
<path d="M30.96 1C48.0584 1.00016 61.9189 14.8615 61.9189 31.96C61.9188 49.0583 48.0583 62.9188 30.96 62.9189C13.8615 62.9189 0.000162877 49.0584 0 31.96C0 14.8614 13.8614 1 30.96 1ZM23.3691 15.9893C23.3691 15.9893 23.3691 15.9928 23.3691 15.9961H23.3662L9.86621 47.7148C9.86621 47.7148 9.86621 47.7383 9.86621 47.752H9.87012C9.87348 47.7587 9.87618 47.7661 9.88281 47.7695C9.88962 47.7729 9.89702 47.7764 9.90723 47.7764H16.9668C16.9691 47.776 16.9905 47.7722 16.9971 47.7627L30.7148 34.7764L33.123 40.6855L35.998 47.7451C35.998 47.7451 36.0015 47.7456 36.0049 47.749C36.0116 47.7625 36.0252 47.7723 36.042 47.7725H50.2227C50.2465 47.7725 50.2666 47.7523 50.2666 47.7285V16.2383C50.2666 16.2383 50.2636 16.2207 50.2568 16.2139H50.2666V16.207C50.2598 16.1972 50.2497 16.1938 50.2363 16.1904H43.2988C43.2924 16.1907 43.2888 16.1968 43.2822 16.2002H43.2793L33.7559 25.1826L29.8369 15.9961H29.834V15.9893C29.8238 15.9757 29.8095 15.9697 29.7959 15.9697H23.4072C23.4072 15.9697 23.3794 15.9758 23.3691 15.9893ZM43.2549 47.5205L35.7871 29.9756L43.2549 22.9033V47.5205ZM28.7344 29.9111L21.4844 36.7461L22.3662 34.5654L26.5098 24.4541L28.7344 29.9111Z" fill="black"/>
<path d="M246.492 49.9916L238.092 37.3103L229.529 49.9916H221.021L233.702 31.2948L221.4 13.2483H229.962L238.092 25.1167L246.058 13.2483H254.566L242.319 31.2948L255 49.9916H246.492Z" fill="black"/>
<path d="M208.498 43.109H193.324L190.939 49.9916H182.81L196.467 13.2483H205.463L219.12 49.9916H210.828L208.498 43.109ZM200.911 21.1606L195.329 37.3645H206.493L200.911 21.1606Z" fill="black"/>
<path d="M154.438 46.9026L144.9 26.7425L144.466 49.9916H137.367L138.18 13.2483H145.983L157.635 38.6109L169.341 13.2483H177.199L177.958 49.9916H170.913L170.425 26.6883L160.833 46.9026H154.438Z" fill="black"/>
<path d="M122.336 13.2483H129.382V49.9916H122.336V13.2483Z" fill="black"/>
<path d="M106.779 43.1088H91.6049L89.2204 49.9914H81.0913L94.7481 13.248H103.744L117.401 49.9914H109.109L106.779 43.1088ZM99.192 21.1603L93.61 37.3642H104.774L99.192 21.1603Z" fill="black"/>
</svg>
