<svg width="259" height="63" viewBox="0 0 259 63" fill="none" xmlns="http://www.w3.org/2000/svg">
<path d="M31.4453 0C48.812 2.37087e-05 62.8906 14.0786 62.8906 31.4453C62.8906 48.812 48.812 62.8906 31.4453 62.8906C14.0786 62.8906 2.37102e-05 48.812 0 31.4453C0 14.0786 14.0786 0 31.4453 0ZM23.7363 15.2246C23.7363 15.2246 23.7363 15.2281 23.7363 15.2314C23.7363 15.2314 23.7359 15.2314 23.7324 15.2314L10.0215 47.4473C10.0215 47.4473 10.0215 47.4715 10.0215 47.4854H10.0244C10.0278 47.4922 10.0313 47.4995 10.0381 47.5029C10.045 47.5064 10.0521 47.5098 10.0625 47.5098H17.2324C17.2324 47.5098 17.2566 47.5064 17.2637 47.4961L31.1963 34.3066L33.6426 40.3086L36.5625 47.4785C36.5625 47.4785 36.5659 47.4791 36.5693 47.4824C36.5762 47.4961 36.5903 47.5057 36.6074 47.5059H51.0107C51.0348 47.5057 51.0557 47.485 51.0557 47.4609V15.4775C51.0557 15.4775 51.0518 15.4601 51.0449 15.4531H51.0557C51.0557 15.4531 51.0557 15.4496 51.0557 15.4463C51.0488 15.436 51.0382 15.4322 51.0244 15.4287H43.9785C43.9716 15.4287 43.9678 15.436 43.9609 15.4395H43.958L34.2861 24.5615L30.3047 15.2314H30.3018V15.2246C30.2914 15.2109 30.2774 15.2042 30.2637 15.2041H23.7744C23.7744 15.2041 23.7469 15.211 23.7363 15.2246ZM43.9336 47.251L36.3486 29.4307L43.9336 22.2461V47.251ZM29.1855 29.3652L21.8213 36.3066L22.7168 34.0918L26.9258 23.8223L29.1855 29.3652Z" fill="#595959"/>
<path d="M250.358 49.7596L241.826 36.8793L233.129 49.7596H224.487L237.368 30.7695L224.873 12.4399H233.57L241.826 24.4945L249.917 12.4399H258.559L246.119 30.7695L259 49.7596H250.358Z" fill="#595959"/>
<path d="M211.768 42.769H196.356L193.934 49.7596H185.677L199.548 12.4399H208.686L222.557 49.7596H214.135L211.768 42.769ZM204.062 20.4763L198.392 36.9344H209.731L204.062 20.4763Z" fill="#595959"/>
<path d="M156.86 46.6221L147.173 26.1458L146.732 49.7596H139.521L140.347 12.4399H148.273L160.108 38.2004L171.997 12.4399H179.979L180.749 49.7596H173.594L173.098 26.0908L163.355 46.6221H156.86Z" fill="#595959"/>
<path d="M124.255 12.4399H131.411V49.7596H124.255V12.4399Z" fill="#595959"/>
<path d="M108.454 42.769H93.0418L90.6198 49.7596H82.3633L96.2343 12.4399H105.372L119.243 49.7596H110.821L108.454 42.769ZM100.748 20.4763L95.0784 36.9344H106.417L100.748 20.4763Z" fill="#595959"/>
</svg>
