<svg width="255" height="64" viewBox="0 0 255 64" fill="none" xmlns="http://www.w3.org/2000/svg">
<path d="M127.343 32.0244C127.343 29.674 127.768 27.4705 128.616 25.4138C129.465 23.3572 130.624 21.5618 132.093 20.0275C133.562 18.4932 135.276 17.2853 137.235 16.4039C139.193 15.5225 141.299 15.0818 143.551 15.0818C145.771 15.0818 147.86 15.5225 149.819 16.4039C151.778 17.2853 153.492 18.4932 154.961 20.0275C156.43 21.5618 157.589 23.3572 158.437 25.4138C159.286 27.4705 159.71 29.674 159.71 32.0244C159.71 34.3422 159.286 36.5294 158.437 38.586C157.589 40.6426 156.43 42.4381 154.961 43.9724C153.492 45.5067 151.778 46.7145 149.819 47.5959C147.86 48.4773 145.771 48.918 143.551 48.918C141.299 48.918 139.193 48.4773 137.235 47.5959C135.276 46.7145 133.562 45.5067 132.093 43.9724C130.624 42.4381 129.465 40.6426 128.616 38.586C127.768 36.5294 127.343 34.3422 127.343 32.0244ZM139.928 16.306C138.263 16.5671 136.827 17.2853 135.619 18.4605C134.411 19.6031 133.448 21.0068 132.73 22.6717C132.011 24.3366 131.587 25.8545 131.456 27.2256C131.326 28.5641 131.261 29.5597 131.261 30.2126C131.261 30.8655 131.293 31.5184 131.359 32.1713C131.424 32.8242 131.522 33.5097 131.652 34.2279C132.044 36.3498 132.632 38.2595 133.415 39.9571C134.231 41.6219 135.194 43.0583 136.304 44.2662C137.414 45.474 138.655 46.4044 140.026 47.0573C141.429 47.6775 142.931 47.9877 144.531 47.9877C145.314 47.9877 146.179 47.8897 147.126 47.6939C148.791 47.3674 150.244 46.6329 151.484 45.4903C152.757 44.3151 153.769 42.8461 154.52 41.0833C155.238 39.3858 155.63 37.9168 155.695 36.6763C155.793 35.4031 155.842 34.538 155.842 34.081C155.842 32.3182 155.63 30.637 155.206 29.0374C154.683 27.0134 153.981 25.2016 153.1 23.6021C152.219 22.0025 151.19 20.6477 150.015 19.5378C148.872 18.4279 147.599 17.5791 146.196 16.9915C144.825 16.4039 143.388 16.1101 141.886 16.1101C141.56 16.1101 141.234 16.1264 140.907 16.1591C140.581 16.1917 140.254 16.2407 139.928 16.306Z" fill="black"/>
<path d="M100.639 0V17.1385C101.781 16.5182 103.038 16.0286 104.409 15.6695C105.813 15.2777 107.249 15.0819 108.718 15.0819C110.938 15.0819 113.076 15.4083 115.133 16.0612C117.19 16.7141 119.018 17.7587 120.617 19.1951C122.217 20.5988 123.49 22.4106 124.437 24.6304C125.383 26.8503 125.857 29.5435 125.857 32.71C125.857 34.8319 125.465 36.8722 124.682 38.8309C123.931 40.7896 122.821 42.5197 121.352 44.0214C119.915 45.4904 118.169 46.6819 116.112 47.596C114.056 48.4774 111.738 48.9181 109.159 48.9181H93.3916C93.5548 48.7549 93.718 48.5917 93.8813 48.4284C94.0445 48.2326 94.2077 48.053 94.3709 47.8898C94.5342 47.7266 94.6974 47.5634 94.8606 47.4001C95.0238 47.2043 95.2197 46.9921 95.4482 46.7636L96.7214 45.4904V3.4277L95.4482 2.15455V2.10559C95.0238 1.71385 94.6647 1.35476 94.3709 1.02831C94.2077 0.865086 94.0445 0.701863 93.8813 0.53864C93.718 0.342772 93.5548 0.163225 93.3916 0H100.639ZM100.639 48.0367H107.494C109.159 48.0367 110.84 47.7103 112.538 47.0574C114.235 46.4045 115.753 45.4414 117.092 44.1683C118.463 42.8625 119.573 41.2466 120.421 39.3206C121.303 37.3945 121.744 35.1584 121.744 32.6121C121.744 29.5761 121.319 27.0298 120.47 24.9732C119.622 22.9166 118.528 21.268 117.19 20.0275C115.851 18.7544 114.35 17.8567 112.685 17.3343C111.02 16.7794 109.371 16.5019 107.739 16.5019C104.932 16.5019 102.565 17.0732 100.639 18.2158V48.0367Z" fill="black"/>
<path d="M59.5352 32.0244C59.5352 29.674 59.9595 27.4705 60.8083 25.4138C61.6571 23.3572 62.8159 21.5618 64.285 20.0275C65.754 18.4932 67.4678 17.2853 69.4265 16.4039C71.3852 15.5225 73.4908 15.0818 75.7433 15.0818C77.9631 15.0818 80.0524 15.5225 82.011 16.4039C83.9697 17.2853 85.6836 18.4932 87.1526 20.0275C88.6216 21.5618 89.7805 23.3572 90.6293 25.4138C91.478 27.4705 91.9024 29.674 91.9024 32.0244C91.9024 34.3422 91.478 36.5294 90.6293 38.586C89.7805 40.6426 88.6216 42.4381 87.1526 43.9724C85.6836 45.5067 83.9697 46.7145 82.011 47.5959C80.0524 48.4773 77.9631 48.918 75.7433 48.918C73.4908 48.918 71.3852 48.4773 69.4265 47.5959C67.4678 46.7145 65.754 45.5067 64.285 43.9724C62.8159 42.4381 61.6571 40.6426 60.8083 38.586C59.9595 36.5294 59.5352 34.3422 59.5352 32.0244ZM72.1197 16.306C70.4548 16.5671 69.0184 17.2853 67.8106 18.4605C66.6027 19.6031 65.6397 21.0068 64.9215 22.6717C64.2033 24.3366 63.779 25.8545 63.6484 27.2256C63.5178 28.5641 63.4525 29.5597 63.4525 30.2126C63.4525 30.8655 63.4852 31.5184 63.5505 32.1713C63.6157 32.8242 63.7137 33.5097 63.8443 34.2279C64.236 36.3498 64.8236 38.2595 65.6071 39.9571C66.4232 41.6219 67.3862 43.0583 68.4961 44.2662C69.606 45.474 70.8465 46.4044 72.2176 47.0573C73.6213 47.6775 75.123 47.9877 76.7226 47.9877C77.5061 47.9877 78.3712 47.8897 79.3179 47.6939C80.9827 47.3674 82.4354 46.6329 83.6759 45.4903C84.9491 44.3151 85.9611 42.8461 86.7119 41.0833C87.4301 39.3858 87.8218 37.9168 87.8871 36.6763C87.985 35.4031 88.034 34.538 88.034 34.081C88.034 32.3182 87.8218 30.637 87.3974 29.0374C86.8751 27.0134 86.1732 25.2016 85.2918 23.6021C84.4104 22.0025 83.3821 20.6477 82.2069 19.5378C81.0643 18.4279 79.7912 17.5791 78.3875 16.9915C77.0164 16.4039 75.58 16.1101 74.0784 16.1101C73.7519 16.1101 73.4255 16.1264 73.099 16.1591C72.7726 16.1917 72.4461 16.2407 72.1197 16.306Z" fill="black"/>
<path d="M7.24713 15.9632V45.8331C8.19382 46.3881 9.2711 46.8125 10.479 47.1063C11.7195 47.4001 13.0252 47.547 14.3963 47.547C16.0286 47.547 17.6771 47.2858 19.342 46.7635C21.0069 46.2085 22.5085 45.3108 23.847 44.0703C25.1854 42.7972 26.2627 41.1323 27.0788 39.0757C27.9276 36.9864 28.3519 34.4238 28.3519 31.3878C28.3519 28.8415 27.9112 26.6054 27.0298 24.6793C26.1811 22.7533 25.0711 21.1537 23.7001 19.8806C22.3616 18.5748 20.8437 17.5954 19.1461 16.9425C17.4486 16.2896 15.7674 15.9632 14.1025 15.9632H7.24713ZM7.24713 63.9999H0C0.163224 63.8367 0.326447 63.6571 0.489671 63.4613C0.652894 63.298 0.816118 63.1348 0.979341 62.9716C1.27314 62.6451 1.61591 62.2697 2.00765 61.8453C2.43203 61.4536 2.87274 61.0292 3.32976 60.5722V18.5095C2.87274 18.0525 2.43203 17.6281 2.00765 17.2363C1.61591 16.812 1.27314 16.4365 0.979341 16.1101C0.816118 15.9469 0.652894 15.7837 0.489671 15.6204C0.326447 15.4246 0.163224 15.245 0 15.0818H15.7674C18.3463 15.0818 20.6641 15.5388 22.7207 16.4529C24.81 17.3343 26.5728 18.5258 28.0092 20.0275C29.4455 21.5291 30.5391 23.2593 31.29 25.218C32.0734 27.1767 32.4652 29.2006 32.4652 31.2899C32.4652 34.4564 31.9918 37.1496 31.0451 39.3695C30.1311 41.5567 28.8743 43.3521 27.2747 44.7558C27.4379 44.6905 27.5848 44.6253 27.7154 44.56C27.8459 44.462 27.9928 44.3641 28.1561 44.2662C30.5065 42.7972 32.5141 41.0996 34.179 39.1736C35.8439 37.2475 37.3619 35.2399 38.733 33.1506C39.2226 32.3672 39.8102 31.3715 40.4958 30.1636C41.214 28.9231 41.9158 27.699 42.6014 26.4911C43.3195 25.2506 43.9888 24.1244 44.609 23.1124C45.2293 22.0678 45.7026 21.3333 46.0291 20.9089C46.5187 20.1907 47.1553 19.4888 47.9388 18.8033C48.7222 18.0851 49.62 17.4649 50.632 16.9425C51.6766 16.3876 52.8192 15.9469 54.0597 15.6204C55.3328 15.2613 56.6875 15.0818 58.1239 15.0818V22.2799C57.8628 21.9861 57.5853 21.7087 57.2915 21.4475C57.0303 21.1863 56.7365 20.9252 56.4101 20.664C55.8551 20.2397 55.1859 19.8642 54.4024 19.5378C53.6189 19.1787 52.7539 18.9992 51.8072 18.9992C51.1543 18.9992 50.2565 19.1787 49.114 19.5378C48.0693 19.9622 47.041 20.9742 46.0291 22.5737C45.0171 24.1733 43.8908 26.0994 42.6503 28.3519C42.0627 29.3639 41.4425 30.4085 40.7896 31.4858C40.1693 32.563 39.4838 33.6566 38.733 34.7666C37.3945 36.6926 35.9745 38.4717 34.4728 40.104C33.0038 41.7362 31.3879 43.1726 29.6251 44.4131C27.8949 45.6209 26.0015 46.6166 23.9449 47.4001C21.9209 48.1509 19.7011 48.6242 17.2854 48.8201C17.1222 48.8201 17.0242 48.8364 16.9916 48.8691C16.7304 48.9017 16.4529 48.918 16.1591 48.918C15.8653 48.918 15.5879 48.918 15.3267 48.918C13.8577 48.918 12.4213 48.7385 11.0176 48.3794C9.64651 47.9877 8.38969 47.498 7.24713 46.9104V63.9999ZM35.3542 48.918L36.3825 47.8897C36.709 47.5633 37.0681 47.2042 37.4598 46.8125C37.8515 46.3881 38.2759 45.9474 38.733 45.4903V36.3335C39.4838 35.2889 40.1856 34.2606 40.8385 33.2486C41.4914 32.2039 42.0954 31.1593 42.6503 30.1147V45.4903C43.2706 46.1432 43.8582 46.7635 44.4131 47.3511C45.0007 47.9387 45.5231 48.461 45.9801 48.918H35.3542ZM38.733 18.5095C38.1127 17.8892 37.5088 17.2853 36.9212 16.6977C36.3336 16.0775 35.8113 15.5388 35.3542 15.0818H42.6503V24.6793C42.4871 24.9731 42.3076 25.2833 42.1117 25.6097C41.9158 25.9362 41.7363 26.2626 41.573 26.5891C41.116 27.3725 40.659 28.1723 40.202 28.9884C39.7449 29.7719 39.2553 30.588 38.733 31.4368V18.5095Z" fill="black"/>
</svg>
